{
	"asset":{
		"generator":"Khronos glTF Blender I/O v4.0.44",
		"version":"2.0"
	},
	"extensionsUsed":[
		"KHR_materials_clearcoat",
		"KHR_materials_specular",
		"KHR_materials_sheen",
		"KHR_materials_ior"
	],
	"scene":0,
	"scenes":[
		{
			"extras":{
				"wiggle":{
					"is_rendering":0
				},
				"scatter_properties":{},
				"jiggle_tree":{},
				"tension_props":{},
				"jiggle_rate":1.0
			},
			"name":"Scene",
			"nodes":[
				2
			]
		}
	],
	"nodes":[
		{
			"mesh":0,
			"name":"Drizzle_low",
			"translation":[
				0,
				0.4907170534133911,
				0
			]
		},
		{
			"children":[
				0
			],
			"mesh":1,
			"name":"Icing_low"
		},
		{
			"children":[
				1
			],
			"mesh":2,
			"name":"Donut_low",
			"rotation":[
				0.40882423520088196,
				0.2296622395515442,
				-0.10709325969219208,
				0.8767264485359192
			]
		}
	],
	"materials":[
		{
			"doubleSided":true,
			"extensions":{
				"KHR_materials_clearcoat":{
					"clearcoatFactor":0.2372727245092392,
					"clearcoatRoughnessFactor":0.048181816935539246
				},
				"KHR_materials_specular":{
					"specularColorFactor":[
						1.9272726774215698,
						1.9272726774215698,
						1.9272726774215698
					]
				},
				"KHR_materials_sheen":{
					"sheenColorFactor":[
						1.0,
						1.0,
						1.0
					],
					"sheenRoughnessFactor":0.5
				},
				"KHR_materials_ior":{
					"ior":1.4500000476837158
				}
			},
			"name":"Drizzle.001",
			"pbrMetallicRoughness":{
				"baseColorFactor":[
					0.7914316058158875,
					0.5209727883338928,
					0.24226370453834534,
					1
				],
				"metallicFactor":0,
				"roughnessFactor":0.3718181848526001
			}
		},
		{
			"doubleSided":true,
			"extensions":{
				"KHR_materials_specular":{
					"specularColorFactor":[
						1.8472727537155151,
						1.8472727537155151,
						1.8472727537155151
					]
				},
				"KHR_materials_ior":{
					"ior":1.4500000476837158
				}
			},
			"name":"Icing.001",
			"pbrMetallicRoughness":{
				"baseColorFactor":[
					0.052869610488414764,
					0.01680663786828518,
					0.006048399955034256,
					1
				],
				"metallicFactor":0,
				"roughnessFactor":0.3863636255264282
			}
		},
		{
			"doubleSided":true,
			"extensions":{
				"KHR_materials_clearcoat":{
					"clearcoatFactor":0.008181817829608917,
					"clearcoatRoughnessFactor":0.07000000029802322
				},
				"KHR_materials_specular":{
					"specularFactor":0.7527272701263428
				},
				"KHR_materials_sheen":{
					"sheenColorFactor":[
						1.0,
						1.0,
						1.0
					],
					"sheenRoughnessFactor":0.5
				},
				"KHR_materials_ior":{
					"ior":1.4500000476837158
				}
			},
			"name":"Donut.001",
			"pbrMetallicRoughness":{
				"baseColorTexture":{
					"index":0
				},
				"metallicFactor":0,
				"roughnessFactor":0.5
			}
		}
	],
	"meshes":[
		{
			"extras":{
				"tension_props":{}
			},
			"name":"Drizzle.001",
			"primitives":[
				{
					"attributes":{
						"POSITION":0,
						"NORMAL":1,
						"TEXCOORD_0":2
					},
					"indices":3,
					"material":0
				}
			]
		},
		{
			"extras":{
				"tension_props":{}
			},
			"name":"Icing.001",
			"primitives":[
				{
					"attributes":{
						"POSITION":4,
						"NORMAL":5,
						"TEXCOORD_0":6
					},
					"indices":7,
					"material":1
				}
			]
		},
		{
			"extras":{
				"tension_props":{}
			},
			"name":"Donut.001",
			"primitives":[
				{
					"attributes":{
						"POSITION":8,
						"NORMAL":9,
						"TEXCOORD_0":10
					},
					"indices":11,
					"material":2
				}
			]
		}
	],
	"textures":[
		{
			"sampler":0,
			"source":0
		}
	],
	"images":[
		{
			"mimeType":"image/png",
			"name":"Donut_baseColor",
			"uri":"textures/Donut_baseColor.png"
		}
	],
	"accessors":[
		{
			"bufferView":0,
			"componentType":5126,
			"count":16081,
			"max":[
				0.5141873359680176,
				-0.19354452192783356,
				0.4770822823047638
			],
			"min":[
				-0.4644622504711151,
				-0.355205774307251,
				-0.45925310254096985
			],
			"type":"VEC3"
		},
		{
			"bufferView":1,
			"componentType":5126,
			"count":16081,
			"type":"VEC3"
		},
		{
			"bufferView":2,
			"componentType":5126,
			"count":16081,
			"type":"VEC2"
		},
		{
			"bufferView":3,
			"componentType":5123,
			"count":89052,
			"type":"SCALAR"
		},
		{
			"bufferView":4,
			"componentType":5126,
			"count":5792,
			"max":[
				0.6226732134819031,
				0.28624996542930603,
				0.5891929268836975
			],
			"min":[
				-0.6028962135314941,
				-0.14540576934814453,
				-0.6118461489677429
			],
			"type":"VEC3"
		},
		{
			"bufferView":5,
			"componentType":5126,
			"count":5792,
			"type":"VEC3"
		},
		{
			"bufferView":6,
			"componentType":5126,
			"count":5792,
			"type":"VEC2"
		},
		{
			"bufferView":7,
			"componentType":5123,
			"count":34752,
			"type":"SCALAR"
		},
		{
			"bufferView":8,
			"componentType":5126,
			"count":5145,
			"max":[
				0.5785461664199829,
				0.26481324434280396,
				0.5670170187950134
			],
			"min":[
				-0.5784439444541931,
				-0.2656874358654022,
				-0.5689154863357544
			],
			"type":"VEC3"
		},
		{
			"bufferView":9,
			"componentType":5126,
			"count":5145,
			"type":"VEC3"
		},
		{
			"bufferView":10,
			"componentType":5126,
			"count":5145,
			"type":"VEC2"
		},
		{
			"bufferView":11,
			"componentType":5123,
			"count":29952,
			"type":"SCALAR"
		}
	],
	"bufferViews":[
		{
			"buffer":0,
			"byteLength":192972,
			"byteOffset":0,
			"target":34962
		},
		{
			"buffer":0,
			"byteLength":192972,
			"byteOffset":192972,
			"target":34962
		},
		{
			"buffer":0,
			"byteLength":128648,
			"byteOffset":385944,
			"target":34962
		},
		{
			"buffer":0,
			"byteLength":178104,
			"byteOffset":514592,
			"target":34963
		},
		{
			"buffer":0,
			"byteLength":69504,
			"byteOffset":692696,
			"target":34962
		},
		{
			"buffer":0,
			"byteLength":69504,
			"byteOffset":762200,
			"target":34962
		},
		{
			"buffer":0,
			"byteLength":46336,
			"byteOffset":831704,
			"target":34962
		},
		{
			"buffer":0,
			"byteLength":69504,
			"byteOffset":878040,
			"target":34963
		},
		{
			"buffer":0,
			"byteLength":61740,
			"byteOffset":947544,
			"target":34962
		},
		{
			"buffer":0,
			"byteLength":61740,
			"byteOffset":1009284,
			"target":34962
		},
		{
			"buffer":0,
			"byteLength":41160,
			"byteOffset":1071024,
			"target":34962
		},
		{
			"buffer":0,
			"byteLength":59904,
			"byteOffset":1112184,
			"target":34963
		}
	],
	"samplers":[
		{
			"magFilter":9729,
			"minFilter":9987
		}
	],
	"buffers":[
		{
			"byteLength":1172088,
			"uri":"scene.bin"
		}
	]
}
