{
	"asset":{
		"generator":"Khronos glTF Blender I/O v4.0.44",
		"version":"2.0"
	},
	"extensionsUsed":[
		"KHR_materials_clearcoat",
		"KHR_materials_specular",
		"KHR_materials_sheen",
		"KHR_materials_ior"
	],
	"scene":0,
	"scenes":[
		{
			"name":"Scene",
			"nodes":[
				2
			]
		}
	],
	"nodes":[
		{
			"mesh":0,
			"name":"Drizzle",
			"translation":[
				0,
				0.4907170534133911,
				0
			]
		},
		{
			"children":[
				0
			],
			"mesh":1,
			"name":"Icing"
		},
		{
			"children":[
				1
			],
			"mesh":2,
			"name":"Donut",
			"rotation":[
				0.36599814891815186,
				-0.45315393805503845,
				0.21130913496017456,
				0.784885585308075
			]
		}
	],
	"materials":[
		{
			"doubleSided":true,
			"extensions":{
				"KHR_materials_clearcoat":{
					"clearcoatFactor":0.2372727245092392,
					"clearcoatRoughnessFactor":0.048181816935539246
				},
				"KHR_materials_specular":{
					"specularColorFactor":[
						1.9272726774215698,
						1.9272726774215698,
						1.9272726774215698
					]
				},
				"KHR_materials_sheen":{
					"sheenColorFactor":[
						1.0,
						1.0,
						1.0
					],
					"sheenRoughnessFactor":0.5
				},
				"KHR_materials_ior":{
					"ior":1.4500000476837158
				}
			},
			"name":"Drizzle",
			"pbrMetallicRoughness":{
				"metallicFactor":0,
				"roughnessFactor":0.3718181848526001
			}
		},
		{
			"doubleSided":true,
			"extensions":{
				"KHR_materials_specular":{
					"specularColorFactor":[
						1.8472727537155151,
						1.8472727537155151,
						1.8472727537155151
					]
				},
				"KHR_materials_sheen":{
					"sheenColorFactor":[
						1.0,
						1.0,
						1.0
					],
					"sheenRoughnessFactor":0.5
				},
				"KHR_materials_ior":{
					"ior":1.4500000476837158
				}
			},
			"name":"Icing",
			"pbrMetallicRoughness":{
				"metallicFactor":0
			}
		},
		{
			"doubleSided":true,
			"extensions":{
				"KHR_materials_clearcoat":{
					"clearcoatFactor":0.008181817829608917,
					"clearcoatRoughnessFactor":0.07000000029802322
				},
				"KHR_materials_specular":{
					"specularFactor":0.7527272701263428
				},
				"KHR_materials_sheen":{
					"sheenColorFactor":[
						1.0,
						1.0,
						1.0
					],
					"sheenRoughnessFactor":0.5
				},
				"KHR_materials_ior":{
					"ior":1.4500000476837158
				}
			},
			"name":"Donut",
			"pbrMetallicRoughness":{
				"baseColorTexture":{
					"index":0
				},
				"metallicFactor":0
			}
		}
	],
	"meshes":[
		{
			"name":"Drizzle",
			"primitives":[
				{
					"attributes":{
						"POSITION":0,
						"NORMAL":1,
						"TEXCOORD_0":2
					},
					"indices":3,
					"material":0
				}
			]
		},
		{
			"name":"Mesh",
			"primitives":[
				{
					"attributes":{
						"POSITION":4,
						"NORMAL":5,
						"TEXCOORD_0":6
					},
					"indices":7,
					"material":1
				}
			]
		},
		{
			"name":"Mesh",
			"primitives":[
				{
					"attributes":{
						"POSITION":8,
						"NORMAL":9,
						"TEXCOORD_0":10
					},
					"indices":11,
					"material":2
				}
			]
		}
	],
	"textures":[
		{
			"sampler":0,
			"source":0
		}
	],
	"images":[
		{
			"mimeType":"image/png",
			"name":"Donut_2_baseColor",
			"uri":"textures/Donut_2_baseColor.png"
		}
	],
	"accessors":[
		{
			"bufferView":0,
			"componentType":5126,
			"count":16081,
			"max":[
				0.5141873359680176,
				-0.19354452192783356,
				0.4770822823047638
			],
			"min":[
				-0.4644622504711151,
				-0.355205774307251,
				-0.45925310254096985
			],
			"type":"VEC3"
		},
		{
			"bufferView":1,
			"componentType":5126,
			"count":16081,
			"type":"VEC3"
		},
		{
			"bufferView":2,
			"componentType":5126,
			"count":16081,
			"type":"VEC2"
		},
		{
			"bufferView":3,
			"componentType":5123,
			"count":89052,
			"type":"SCALAR"
		},
		{
			"bufferView":4,
			"componentType":5126,
			"count":26363,
			"max":[
				0.6135755181312561,
				0.2854897081851959,
				0.5888015031814575
			],
			"min":[
				-0.6011097431182861,
				-0.13760578632354736,
				-0.5998767614364624
			],
			"type":"VEC3"
		},
		{
			"bufferView":5,
			"componentType":5126,
			"count":26363,
			"type":"VEC3"
		},
		{
			"bufferView":6,
			"componentType":5126,
			"count":26363,
			"type":"VEC2"
		},
		{
			"bufferView":7,
			"componentType":5123,
			"count":139008,
			"type":"SCALAR"
		},
		{
			"bufferView":8,
			"componentType":5126,
			"count":20704,
			"max":[
				0.5780823826789856,
				0.263946533203125,
				0.5665455460548401
			],
			"min":[
				-0.5780172348022461,
				-0.2645881175994873,
				-0.5684092044830322
			],
			"type":"VEC3"
		},
		{
			"bufferView":9,
			"componentType":5126,
			"count":20704,
			"type":"VEC3"
		},
		{
			"bufferView":10,
			"componentType":5126,
			"count":20704,
			"type":"VEC2"
		},
		{
			"bufferView":11,
			"componentType":5123,
			"count":119808,
			"type":"SCALAR"
		}
	],
	"bufferViews":[
		{
			"buffer":0,
			"byteLength":192972,
			"byteOffset":0,
			"target":34962
		},
		{
			"buffer":0,
			"byteLength":192972,
			"byteOffset":192972,
			"target":34962
		},
		{
			"buffer":0,
			"byteLength":128648,
			"byteOffset":385944,
			"target":34962
		},
		{
			"buffer":0,
			"byteLength":178104,
			"byteOffset":514592,
			"target":34963
		},
		{
			"buffer":0,
			"byteLength":316356,
			"byteOffset":692696,
			"target":34962
		},
		{
			"buffer":0,
			"byteLength":316356,
			"byteOffset":1009052,
			"target":34962
		},
		{
			"buffer":0,
			"byteLength":210904,
			"byteOffset":1325408,
			"target":34962
		},
		{
			"buffer":0,
			"byteLength":278016,
			"byteOffset":1536312,
			"target":34963
		},
		{
			"buffer":0,
			"byteLength":248448,
			"byteOffset":1814328,
			"target":34962
		},
		{
			"buffer":0,
			"byteLength":248448,
			"byteOffset":2062776,
			"target":34962
		},
		{
			"buffer":0,
			"byteLength":165632,
			"byteOffset":2311224,
			"target":34962
		},
		{
			"buffer":0,
			"byteLength":239616,
			"byteOffset":2476856,
			"target":34963
		}
	],
	"samplers":[
		{
			"magFilter":9729,
			"minFilter":9987
		}
	],
	"buffers":[
		{
			"byteLength":2716472,
			"uri":"scene.bin"
		}
	]
}
